# xmcd
#
# Track frame offsets:
#	150
#	10081
#	19178
#	30437
#	46506
#	58980
#	75522
#	89026
#	99221
#	110140
#	123589
#	134789
#	151685
#	161107
#	172475
#	185036
#	195755
#	206848
#	219007
#	236501
#	249996
#
# Disc length: 3453 seconds
#
# Revision: 1
# Processed by: cddbd v1.5.2PL0 Copyright (c) Steve Scherf et al.
# Submitted via: audiograbber 1.83.01
#
DISCID=1b0d7b15
DTITLE=Rock that Swing - 2018
DYEAR=2018
DGENRE=Blues
TTITLE0=Jackson Sloan - Rock that Swing!
TTITLE1=Mark Summers - All Shook up
TTITLE2=Stargazers - Aint't that a shame
TTITLE3=Nine Pennies - In Ceraca di te (live)
TTITLE4=Hot Sugar Band - Louise
TTITLE5=Mike Sanchez - Ramblin' Boogie
TTITLE6=Chris Aron and The Croakers - Hard life
TTITLE7=Matthieu Boré - I'm ready
TTITLE8=NP Big Band - At the darktown Strutters' Ball
TTITLE9=Gunhild Carling - My heart is waiting
TTITLE10=Jumpin' Up - French Poodle
TTITLE11=Hot Sugar Band - The godfather's suite
TTITLE12=Mark Summers - Don't be cruel
TTITLE13=Stargazers - Roll Over Beethoven
TTITLE14=NP Big Band - On the sunny side of the street
TTITLE15=Chris Aron and The Croakers - The golden way
TTITLE16=Matthieu Boré - Be my guest
TTITLE17=Nine Pennies - Legata ad un scoglio
TTITLE18=Mike Sanchez with Knock Out Greg and Blue Weather - Easy Boogie
TTITLE19=Jumpin' Up - Knock me a kiss
TTITLE20=Jackson Sloan - Rock that Swing! (Instrumental)
EXTD=
EXTT0=
EXTT1=
EXTT2=
EXTT3=
EXTT4=
EXTT5=
EXTT6=
EXTT7=
EXTT8=
EXTT9=
EXTT10=
EXTT11=
EXTT12=
EXTT13=
EXTT14=
EXTT15=
EXTT16=
EXTT17=
EXTT18=
EXTT19=
EXTT20=
PLAYORDER=
